<?xml version="1.0" standalone="no"?>
<!DOCTYPE svg PUBLIC "-//W3C//DTD SVG 20010904//EN"
 "http://www.w3.org/TR/2001/REC-SVG-20010904/DTD/svg10.dtd">
<svg version="1.0" xmlns="http://www.w3.org/2000/svg"
 width="792.000000pt" height="792.000000pt" viewBox="0 0 792.000000 792.000000"
 preserveAspectRatio="xMidYMid meet">
<metadata>
Created by potrace 1.16, written by Peter Selinger 2001-2019
</metadata>
<g transform="translate(0.000000,792.000000) scale(0.100000,-0.100000)"
fill="#000000" stroke="none">
<path d="M1718 6254 c-36 -19 -48 -43 -48 -98 0 -63 34 -130 97 -194 105 -106
247 -143 407 -107 43 9 79 15 81 13 1 -1 75 -173 163 -381 l160 -377 -125
-233 c-69 -127 -134 -251 -144 -274 l-18 -43 194 0 194 0 19 28 c11 15 29 47
42 71 l22 44 31 -71 32 -72 192 0 c179 0 192 1 186 18 -4 9 -39 90 -79 180
l-72 162 1076 -2 1075 -3 15 -53 15 -54 -124 -124 -124 -124 343 0 c322 0 343
1 338 18 -3 9 -30 98 -60 197 -44 146 -269 874 -292 947 -5 18 3 19 353 16
354 -3 358 -3 403 -27 76 -39 116 -88 134 -163 17 -70 -45 -178 -125 -219 -22
-11 -70 -23 -107 -28 -119 -15 -169 -58 -179 -154 -11 -105 50 -176 159 -184
152 -12 318 55 439 176 227 227 222 560 -11 788 -57 55 -131 99 -227 136 -56
21 -72 22 -577 25 l-519 3 -51 -25 c-63 -31 -96 -82 -96 -148 0 -35 83 -327
174 -616 l7 -22 -1101 2 -1102 3 -143 340 c-79 187 -141 341 -137 342 4 1 99
23 212 48 113 25 217 50 232 56 40 16 69 53 75 96 4 32 0 45 -22 71 l-27 32
-666 0 c-569 -1 -671 -3 -694 -16z"/>
</g>
</svg>
